<svg width="64" height="77" viewBox="0 0 64 77" fill="none" xmlns="http://www.w3.org/2000/svg">
<path d="M24.9567 0.164116C21.8258 0.568556 18.8171 1.40033 16.1596 2.59838C8.97386 5.84916 3.29245 12.3507 0.978644 19.9588C0.551011 21.3781 0.421194 22.0344 0.207377 23.9879C-0.0522577 26.3764 -0.059894 26.5672 0.13865 26.9716C0.230286 27.17 0.42883 27.4218 0.581556 27.5363C0.818282 27.7194 0.917554 27.7423 1.43682 27.7423C1.95609 27.7423 2.05536 27.7194 2.29209 27.5363C2.75027 27.1853 2.81136 26.9411 3.04045 24.7663C3.30008 22.3396 3.3459 22.0725 3.77353 20.699C4.23171 19.2186 4.62116 18.2723 5.34661 16.8453C6.97315 13.6556 9.49313 10.5574 12.204 8.39789C14.0978 6.8946 16.7858 5.36841 18.9698 4.5519C24.3381 2.56786 30.325 2.31604 36.0293 3.82696C41.1762 5.1929 45.7121 7.74163 49.3776 11.3282C51.5387 13.4419 53.0506 15.571 54.4252 18.3944C55.3874 20.3785 56.0059 22.2786 56.4335 24.5373C56.5863 25.3462 56.6092 25.6896 56.6092 27.4371C56.6092 29.4745 56.5404 30.23 56.2579 31.4433C55.9906 32.6032 55.5019 33.9844 55.0361 34.9001C54.3946 36.1745 54.2495 36.7392 54.303 37.8533C54.3488 39.0208 54.5474 39.6542 55.5401 41.8443C56.5175 43.9962 57.2048 45.0645 59.0604 47.3157C59.5491 47.9185 59.9997 48.8495 60.099 49.4981C60.1677 49.9407 60.16 50.101 60.0531 50.4825C59.9386 50.864 59.8317 51.0167 59.3735 51.4822C58.8161 52.0316 58.2433 52.375 57.1666 52.8023C56.6168 53.0236 56.1586 53.4586 55.899 54.0156C55.7234 54.3895 55.6928 54.5498 55.7004 55.1374C55.7004 55.6029 55.7615 56.0378 55.8837 56.4728C56.067 57.1748 56.1128 57.8692 55.9753 58.1211C55.9295 58.205 55.6088 58.4492 55.2575 58.6629C53.6845 59.6244 53.3103 60.5324 53.8906 62.0052C54.1503 62.6767 54.1808 62.9972 54.0128 63.2338C53.9517 63.3254 53.5012 63.5924 53.0125 63.829C52.2488 64.2106 52.035 64.3555 51.531 64.8592C50.7216 65.6681 50.355 66.4006 50.355 67.2324C50.3474 67.736 50.3779 67.881 50.6147 68.377C50.8514 68.8807 50.8819 69.0257 50.8743 69.5217C50.8743 69.9872 50.8285 70.1779 50.6605 70.5366C50.4238 71.025 49.2249 72.3985 48.6063 72.8869C48.003 73.3677 46.995 73.8408 46.3536 73.9476C45.6663 74.0621 45.3838 74.0239 44.1009 73.6348C40.9242 72.6809 38.7707 72.3222 36.1057 72.3222C33.6391 72.3146 32.2112 72.5512 30.8595 73.1845C29.6912 73.7263 28.6297 74.5657 28.4617 75.0694C28.4159 75.2144 28.393 75.5272 28.4083 75.7485C28.4694 76.4811 29.0574 77 29.8286 77C30.2868 77 30.4319 76.939 30.913 76.5421C32.0202 75.6264 33.0511 75.3136 35.3268 75.1991C37.6177 75.0923 40.1147 75.4662 43.2456 76.3895C45.2692 76.9847 45.6816 77.0229 47.1783 76.7329C48.2016 76.5269 49.6219 75.8096 50.6834 74.9473C51.2179 74.5123 52.5772 72.9709 52.9437 72.3833C53.127 72.0933 53.3866 71.521 53.5241 71.1242C53.7455 70.4756 53.7685 70.3077 53.7685 69.5217C53.7761 68.7357 53.7455 68.5754 53.5317 67.9421C53.4019 67.5529 53.3103 67.1866 53.3332 67.1179C53.4095 66.9272 54.051 66.4998 54.639 66.2556C55.3263 65.9657 55.6012 65.7749 56.0441 65.2865C56.7695 64.4929 56.991 63.8748 56.9833 62.7302C56.9757 62.1884 56.9375 61.8221 56.8535 61.5931C56.7772 61.41 56.7237 61.2345 56.7237 61.204C56.7237 61.1658 56.907 61.0361 57.1361 60.914C57.6477 60.624 58.2662 60.0288 58.4724 59.6167C58.9611 58.6629 59.0757 57.4267 58.7931 56.221C58.7015 55.8547 58.6328 55.5037 58.6328 55.4426C58.6328 55.3816 58.9153 55.206 59.2742 55.0382C60.9542 54.2522 62.2524 52.9473 62.7335 51.5814C63.0466 50.6809 63.1153 49.9636 62.9626 49.1242C62.6953 47.6133 62.0997 46.4152 60.916 45.0035C60.0226 43.9504 58.9917 42.4166 58.5946 41.5696C57.3652 38.9216 57.1819 38.418 57.1819 37.5939C57.1819 37.1589 57.2201 36.9757 57.3652 36.7087C58.3426 34.9307 59.091 32.5422 59.4041 30.2224C59.5415 29.2303 59.5415 25.7354 59.4117 24.8426C58.7702 20.5769 57.159 16.5554 54.7154 13.0986C52.7452 10.3209 50.0419 7.72637 46.8881 5.58971C42.5965 2.68996 37.5489 0.820377 32.2035 0.156485C30.4777 -0.057181 26.629 -0.0495501 24.9567 0.164116Z" fill="#F3F3F4"/>
<path d="M30.6456 7.94005C30.531 7.98584 30.2332 8.63447 29.4696 10.5422C28.9045 11.9463 28.4158 13.1215 28.3776 13.1672C28.3089 13.2436 25.8042 13.5946 25.7125 13.5412C25.682 13.5259 24.9336 12.5186 24.0402 11.2977C23.1467 10.0767 22.3526 9.04654 22.2762 9.00075C22.1616 8.93971 21.7417 9.08469 20.2144 9.71043C19.0766 10.1759 18.2671 10.5498 18.2289 10.6338C18.1755 10.7253 18.2748 11.6105 18.542 13.5259C18.8628 15.8228 18.9162 16.3036 18.8246 16.3722C18.7711 16.4104 18.29 16.7843 17.7631 17.1887L16.8086 17.9289L14.2199 16.7843C12.1734 15.8762 11.593 15.6473 11.4555 15.7007C11.2417 15.777 8.92028 18.8904 8.92028 19.0965C8.92028 19.1804 9.70682 20.2716 10.6766 21.5231L12.4254 23.8048L11.9824 25.0486C11.6083 26.094 11.509 26.3001 11.3563 26.3535C11.257 26.384 10.0046 26.5977 8.57665 26.8342C6.61412 27.1471 5.94976 27.2845 5.85812 27.3837C5.67485 27.5744 5.37704 31.4052 5.52213 31.6417C5.59849 31.7638 6.25521 32.0157 8.1872 32.6643C9.59228 33.145 10.7835 33.5495 10.8294 33.58C10.8752 33.6105 11.0966 34.3355 11.3257 35.1901C11.5472 36.0448 11.929 37.3115 12.1657 37.9983C12.685 39.5092 13.1432 41.2872 13.3264 42.4929C13.5097 43.7215 13.5021 46.5755 13.3188 47.9643C13.0515 49.9254 12.5552 52.1537 11.9366 54.153L11.6694 55L11.2723 55.1679C11.0508 55.2595 9.61519 55.8547 8.08029 56.4881C6.54539 57.1214 5.23195 57.6937 5.16322 57.7624C5.09449 57.8311 4.8654 58.2966 4.65159 58.8002C4.44541 59.3039 4.22395 59.7236 4.1705 59.7312C3.63596 59.8075 3.46032 59.8686 3.21596 60.0822C2.72724 60.5096 2.59742 61.1658 2.87996 61.7229C3.15487 62.2647 3.54432 62.5012 4.16286 62.5012C4.79668 62.5012 5.27013 62.1349 5.48394 61.4863C5.59849 61.1277 5.48394 60.5935 5.21667 60.2425L5.04104 60.0135L5.39995 59.1818L5.75122 58.35L8.49265 57.2206C9.997 56.5949 11.2494 56.0989 11.2646 56.1141C11.341 56.1981 9.76028 60.1356 8.17193 63.7985L7.49229 65.3628L6.22467 65.8894L4.96468 66.4083L4.70504 66.2175C4.09414 65.7444 3.32287 65.7825 2.8036 66.3091C1.78033 67.3316 2.81124 69.0257 4.20868 68.606C4.75086 68.4457 4.99522 68.1176 5.21667 67.2706C5.23958 67.179 6.85084 66.5075 6.9043 66.5685C6.92721 66.5914 6.75921 67.0798 6.53012 67.6597C5.96503 69.0944 5.51449 70.5137 5.40758 71.2463C5.35413 71.5744 5.30067 71.8873 5.29304 71.9331C5.27776 71.9788 5.13267 72.0399 4.96468 72.0704C4.39195 72.1544 3.88032 72.7954 3.88032 73.4135C3.88032 73.8026 4.12468 74.2758 4.46068 74.5276C4.71268 74.726 4.81195 74.7489 5.29304 74.7489C5.77412 74.7489 5.8734 74.726 6.12539 74.5276C6.45376 74.2834 6.69812 73.8026 6.70575 73.4287C6.70575 73.1082 6.52248 72.6656 6.27812 72.4138C6.09485 72.223 6.09485 72.2001 6.17121 71.6507C6.21703 71.3378 6.3163 70.8418 6.4003 70.5366C6.59885 69.8193 7.25557 67.9955 7.31666 67.9955C7.38539 67.9955 7.33193 67.881 8.76756 71.3455L10.0123 74.3521L9.82901 74.4894C9.66864 74.6115 9.64573 74.6878 9.65337 75.1075C9.66101 76.214 10.3635 76.8703 11.2875 76.6185C11.9977 76.4277 12.4635 75.6341 12.2803 74.9396C12.1123 74.3292 11.5014 73.8561 10.9134 73.8942C10.7454 73.9095 10.6385 73.6805 9.25628 70.3458L7.77484 66.7822L8.5232 65.0652C8.92792 64.119 9.28683 63.3406 9.30974 63.3406C9.34028 63.3406 9.5541 63.8137 9.79082 64.3861L10.2337 65.4239L10.0352 65.8131C9.37846 67.1179 10.5774 68.3847 11.8679 67.7589C13.1126 67.1637 12.6774 65.1797 11.2952 65.1568H11.0126L10.3941 63.6611L9.77555 62.1655L10.0428 61.555C10.1879 61.2116 10.5468 60.334 10.8446 59.6015C11.1425 58.8689 11.4097 58.2355 11.4403 58.205C11.4708 58.1669 11.6846 58.6095 11.9214 59.1818L12.349 60.2196L12.2039 60.4638C11.8221 61.0819 11.8755 61.8526 12.3414 62.2952C12.6086 62.5546 13.2195 62.753 13.5403 62.6844C15.121 62.3486 15.0904 60.1204 13.4944 59.9143L13.105 59.8686L12.5017 58.3958L11.8908 56.9306L12.433 55.2747C14.1817 49.9407 14.701 45.6979 14.0672 41.8977C13.8839 40.8065 13.4715 39.265 12.9599 37.7846C12.7079 37.0597 12.3108 35.7167 12.0817 34.8086C11.845 33.9005 11.6235 33.1069 11.5854 33.0382C11.5472 32.9619 10.5392 32.588 8.92028 32.0462L6.32394 31.1762L6.33158 30.871C6.33158 30.2605 6.53012 28.0857 6.57594 28.0323C6.60648 28.0094 7.83593 27.7881 9.30974 27.5439C10.9439 27.2845 12.0283 27.0708 12.097 27.0098C12.2268 26.8724 13.273 23.9421 13.273 23.7056C13.273 23.5911 12.6697 22.7441 11.593 21.3476C10.669 20.1495 9.91301 19.127 9.91301 19.0812C9.91301 18.9744 11.6694 16.6393 11.7534 16.6393C11.7915 16.6393 12.9599 17.1353 14.3421 17.7458C16.5719 18.7302 16.8773 18.8523 17.03 18.7683C17.1293 18.7149 17.7784 18.2342 18.4886 17.6924C19.6646 16.7843 19.7638 16.6851 19.7638 16.4638C19.7638 16.3265 19.6111 15.1284 19.4202 13.793C19.2293 12.4576 19.0766 11.3053 19.0766 11.229C19.0766 11.1145 19.3744 10.9619 20.4817 10.504C21.2529 10.1835 21.9173 9.9241 21.9478 9.9241C21.986 9.93173 22.742 10.9237 23.6202 12.1371C24.506 13.3504 25.2849 14.3653 25.3613 14.3882C25.5522 14.4569 28.706 14.0524 28.8892 13.938C28.9885 13.8693 29.3703 13.007 30.027 11.3663C30.5692 10.008 31.035 8.8634 31.0656 8.83287C31.119 8.77183 34.0285 9.12285 34.1048 9.19153C34.1201 9.21442 34.2881 10.443 34.4637 11.9234C34.647 13.4038 34.815 14.6705 34.8456 14.7392C34.8685 14.8079 35.6245 15.1665 36.5714 15.5557C38.0299 16.1738 38.2666 16.2501 38.4194 16.1738C38.5492 16.0975 40.7255 14.4416 42.5277 13.0451L42.8026 12.8315L44.032 13.7472C44.7117 14.2508 45.2691 14.6858 45.2691 14.724C45.2691 14.7545 44.8339 15.7618 44.307 16.9522C42.9706 19.9588 43.0241 19.8214 43.1691 20.0503C43.4975 20.5464 45.1393 22.5991 45.2615 22.6678C45.3684 22.7212 46.1549 22.6372 48.0946 22.3549C49.576 22.1489 50.7978 21.9886 50.8207 22.0039C50.8818 22.0649 51.9891 24.751 51.9891 24.8349C51.9891 24.8807 50.9964 25.6362 49.7746 26.5214C48.5604 27.3989 47.5448 28.1849 47.5218 28.2536C47.4684 28.4138 47.6975 30.1995 47.7967 30.3903C47.9342 30.6497 48.5604 30.4971 48.5527 30.1995C48.5451 30.1461 48.4993 29.7722 48.4458 29.3601L48.3466 28.6046L48.8887 28.2078C49.1866 27.9941 50.1793 27.2616 51.1033 26.5977C52.0196 25.9262 52.8214 25.3004 52.8902 25.2089C52.9894 25.041 52.9513 24.9113 52.2105 23.118C51.6302 21.7292 51.3782 21.1874 51.2636 21.1416C51.172 21.111 50.08 21.2331 48.5527 21.4544C47.1477 21.6605 45.9029 21.8284 45.7884 21.8284C45.6204 21.8284 45.4677 21.6681 44.8033 20.8211C44.3757 20.264 44.0244 19.7756 44.0244 19.7298C44.0244 19.6917 44.5284 18.5089 45.1469 17.1124C45.8495 15.5176 46.2542 14.5179 46.2237 14.434C46.1626 14.2356 43.0011 11.9081 42.795 11.9081C42.6957 11.9081 41.7488 12.5873 40.4048 13.6251L38.175 15.3344L36.8921 14.8003C36.1896 14.5027 35.6016 14.2508 35.5939 14.2432C35.5863 14.2432 35.4259 12.9688 35.2427 11.4198C35.0136 9.53492 34.8685 8.57342 34.7921 8.50474C34.731 8.43607 34.0514 8.31397 32.9365 8.16898C31.9667 8.04689 31.0961 7.92479 30.9892 7.90953C30.8823 7.89427 30.7296 7.90953 30.6456 7.94005ZM4.55995 60.7919C4.7585 61.0514 4.7585 61.204 4.55995 61.4634C4.24686 61.8602 3.57487 61.6389 3.57487 61.1277C3.57487 60.6164 4.24686 60.3951 4.55995 60.7919ZM13.7312 60.8987C13.945 61.1124 13.9297 61.4711 13.693 61.7C13.5937 61.8068 13.4563 61.8908 13.3952 61.8908C13.1813 61.8908 12.9064 61.7229 12.8224 61.5321C12.7003 61.2726 12.7155 61.1734 12.8988 60.9445C13.0973 60.6927 13.5021 60.6698 13.7312 60.8987ZM11.6235 66.1641C11.9595 66.4922 11.7075 67.0798 11.2341 67.0798C10.5926 67.0798 10.4552 66.2099 11.0585 65.9886C11.2188 65.9275 11.4555 66.0038 11.6235 66.1641ZM4.13995 66.8585C4.52941 67.1637 4.28504 67.8429 3.78868 67.8429C3.51378 67.8429 3.19305 67.5376 3.19305 67.2858C3.19305 67.0416 3.52141 66.6982 3.7505 66.6982C3.84977 66.6982 4.02541 66.7669 4.13995 66.8585ZM5.71303 73.0472C6.0414 73.4058 5.7894 73.9476 5.29304 73.9476C5.12504 73.9476 4.97995 73.8866 4.87304 73.7797C4.54468 73.4211 4.79668 72.8793 5.29304 72.8793C5.46104 72.8793 5.60613 72.9403 5.71303 73.0472ZM11.3257 74.9015C11.5395 75.1075 11.5548 75.222 11.4326 75.5043C11.3334 75.718 10.9745 75.8935 10.7912 75.8248C10.669 75.7791 10.4475 75.3365 10.4475 75.1457C10.4475 75.0541 10.9363 74.7184 11.0814 74.7107C11.1119 74.7107 11.2265 74.7947 11.3257 74.9015Z" fill="#F3F3F4"/>
</svg>
